<svg width="48" height="48" viewBox="0 0 48 48" fill="none" xmlns="http://www.w3.org/2000/svg">
<path d="M5.89349 14.151C7.65331 19.6769 13.6542 22.7594 19.2968 21.036C24.9394 19.3126 38.304 10.3154 36.5442 4.78952C34.7843 -0.736348 18.5666 -0.698355 12.9239 1.02505C7.28131 2.74845 4.13367 8.62514 5.89349 14.151Z" fill="#2563EB"/>
<path d="M2.48395 44.4517C5.79589 47.6951 11.165 47.6951 14.477 44.4517C17.7889 41.2083 23.7851 30.0776 20.4737 26.8342C17.1618 23.591 5.79589 29.4634 2.48395 32.7066C-0.827984 35.95 -0.827984 41.2083 2.48395 44.4517Z" fill="#2563EB"/>
<path d="M34.175 47.6401C39.8844 49.1381 45.7529 45.8202 47.2829 40.229C48.8123 34.6378 48.1945 18.7673 42.4851 17.269C36.7757 15.771 28.1376 29.2126 26.6076 34.8038C25.0777 40.3948 28.4657 46.1418 34.175 47.6401Z" fill="#2563EB"/>
</svg>
